<svg xmlns="http://www.w3.org/2000/svg" width="34.332" height="39.5" viewBox="0 0 34.332 39.5">
  <path id="Icon_material-replay-10" data-name="Icon material-replay-10" d="M23.166,9.4V1.5L12.437,11.375,23.166,21.25v-7.9c7.081,0,12.875,5.333,12.875,11.85S30.247,37.05,23.166,37.05,10.292,31.718,10.292,25.2H6C6,33.89,13.725,41,23.166,41s17.166-7.11,17.166-15.8S32.608,9.4,23.166,9.4Zm-2.36,21.725H18.875V24.608l-2.146.592V23.818l3.862-1.185h.215Zm9.227-3.555a3.566,3.566,0,0,1-.215,1.58l-.644,1.185s-.644.593-1.073.593-.858.2-1.287.2a2.933,2.933,0,0,1-1.287-.2c-.429-.2-.644-.4-1.073-.593s-.429-.593-.644-1.185a4.025,4.025,0,0,1-.215-1.58V26.188a3.567,3.567,0,0,1,.215-1.58l.644-1.185s.644-.592,1.073-.592.858-.2,1.287-.2a2.933,2.933,0,0,1,1.287.2c.429.2.644.395,1.073.592s.429.593.644,1.185a4.025,4.025,0,0,1,.215,1.58ZM28.1,25.99V25a1.886,1.886,0,0,1-.215-.592c0-.2-.215-.2-.429-.4a1.148,1.148,0,0,0-1.287,0l-.429.4a1.886,1.886,0,0,0-.215.592v3.95a1.886,1.886,0,0,1,.215.593c0,.2.215.2.429.395a1.148,1.148,0,0,0,1.287,0l.429-.395a1.886,1.886,0,0,0,.215-.593Z" transform="translate(-6 -1.5)" fill="#fff"/>
</svg>
