<svg id="noun-gears-2268201" xmlns="http://www.w3.org/2000/svg" width="35.086" height="35.896" viewBox="0 0 35.086 35.896">
  <path id="Caminho_131" data-name="Caminho 131" d="M166.5,78.4l-.467,4.191a14.441,14.441,0,0,0-5.235,3.022l-3.864-1.7-3.989,6.917,3.412,2.493a14.128,14.128,0,0,0,0,6.045l-3.412,2.493,3.989,6.917,3.864-1.7a14.44,14.44,0,0,0,5.235,3.022l.467,4.191h7.977l.467-4.191a14.441,14.441,0,0,0,5.235-3.022l3.864,1.7,3.989-6.917-3.412-2.493a14.12,14.12,0,0,0,0-6.045l3.412-2.493-3.989-6.917-3.864,1.7a14.44,14.44,0,0,0-5.235-3.022l-.468-4.191H166.5Zm3.989,9.473a8.475,8.475,0,1,1-8.475,8.475A8.475,8.475,0,0,1,170.493,87.871Z" transform="translate(-152.95 -78.398)" fill="#fff"/>
</svg>
